HIERARCHY
ROOT joint_Root
{
	OFFSET 0.0 0.0 0.0
	CHANNELS 6 Xposition Yposition Zposition Zrotation Xrotation Yrotation 
	JOINT Hips
	{
		OFFSET -17.1583 93.1646 452.98
		CHANNELS 6 Xposition Yposition Zposition Zrotation Xrotation Yrotation 
		JOINT Spine
		{
			OFFSET 15.7357 0.0 0.0
			CHANNELS 6 Xposition Yposition Zposition Zrotation Xrotation Yrotation 
			JOINT Chest
			{
				OFFSET 8.98455 -0.406207 0.0
				CHANNELS 6 Xposition Yposition Zposition Zrotation Xrotation Yrotation 
				JOINT Neck
				{
					OFFSET 16.3773 0.0 0.0
					CHANNELS 6 Xposition Yposition Zposition Zrotation Xrotation Yrotation 
					JOINT Head
					{
						OFFSET 6.45672 0.0 0.0
						CHANNELS 6 Xposition Yposition Zposition Zrotation Xrotation Yrotation 
						End Site
						{
							OFFSET 0.0 0.0 0.0
						}
					}
				}
				JOINT Shoulder_L
				{
					OFFSET 12.9942 -0.242716 4.98039
					CHANNELS 6 Xposition Yposition Zposition Zrotation Xrotation Yrotation 
					JOINT UpperArm_L
					{
						OFFSET 5.34809 0.0 0.0
						CHANNELS 6 Xposition Yposition Zposition Zrotation Xrotation Yrotation 
						JOINT LowerArm_L
						{
							OFFSET 24.3286 1.87007e-05 0.0
							CHANNELS 6 Xposition Yposition Zposition Zrotation Xrotation Yrotation 
							JOINT Hand_L
							{
								OFFSET 22.2916 0.0 0.0
								CHANNELS 6 Xposition Yposition Zposition Zrotation Xrotation Yrotation 
								End Site
								{
									OFFSET 0.0 0.0 0.0
								}
							}
						}
					}
				}
				JOINT Shoulder_R
				{
					OFFSET 12.9945 -0.242716 -4.98039
					CHANNELS 6 Xposition Yposition Zposition Zrotation Xrotation Yrotation 
					JOINT UpperArm_R
					{
						OFFSET -5.34813 0.0 0.0
						CHANNELS 6 Xposition Yposition Zposition Zrotation Xrotation Yrotation 
						JOINT LowerArm_R
						{
							OFFSET -24.3289 0.000322201 0.0
							CHANNELS 6 Xposition Yposition Zposition Zrotation Xrotation Yrotation 
							JOINT Hand_R
							{
								OFFSET -22.2915 -0.000108084 0.0
								CHANNELS 6 Xposition Yposition Zposition Zrotation Xrotation Yrotation 
								End Site
								{
									OFFSET 0.0 0.0 0.0
								}
							}
						}
					}
				}
			}
		}
		JOINT UpperLeg_L
		{
			OFFSET -2.19248 -6.46944 0.0
			CHANNELS 6 Xposition Yposition Zposition Zrotation Xrotation Yrotation 
			JOINT LowerLeg_L
			{
				OFFSET 39.0811 0.0 -1.23785e-05
				CHANNELS 6 Xposition Yposition Zposition Zrotation Xrotation Yrotation 
				JOINT Foot_L
				{
					OFFSET 40.9854 0.0 -1.26872e-05
					CHANNELS 6 Xposition Yposition Zposition Zrotation Xrotation Yrotation 
					JOINT Toes_L
					{
						OFFSET 11.7543 0.0 0.0
						CHANNELS 6 Xposition Yposition Zposition Zrotation Xrotation Yrotation 
						End Site
						{
							OFFSET 0.0 0.0 0.0
						}
					}
				}
			}
		}
		JOINT UpperLeg_R
		{
			OFFSET -2.19251 6.46944 0.0
			CHANNELS 6 Xposition Yposition Zposition Zrotation Xrotation Yrotation 
			JOINT LowerLeg_R
			{
				OFFSET -39.0811 -0.00228153 -0.0401928
				CHANNELS 6 Xposition Yposition Zposition Zrotation Xrotation Yrotation 
				JOINT Foot_R
				{
					OFFSET -40.9854 0.0 0.0
					CHANNELS 6 Xposition Yposition Zposition Zrotation Xrotation Yrotation 
					JOINT Toes_R
					{
						OFFSET -11.7543 0.0 0.0
						CHANNELS 6 Xposition Yposition Zposition Zrotation Xrotation Yrotation 
						End Site
						{
							OFFSET 0.0 0.0 0.0
						}
					}
				}
			}
		}
	}
}
MOTION
Frames:	8
Frame Time:	0.0333333
0.000000 0.000000 0.000000 0.000000 0.000000 -0.000000 -5.145330 91.869900 -0.857163 84.646600 4.958690 4.698610 15.735700 0.000005 -0.000001 80.816200 87.105300 -78.962100 8.984550 -0.406207 -0.000000 -2.030820 -1.082180 3.688580 16.377300 -0.000001 -0.000001 8.338080 -1.162700 -9.395450 6.456720 -0.000001 -0.000000 2.302980 -6.066090 -17.800400 12.994200 -0.242716 4.980390 -92.837100 7.630350 -69.533400 5.348090 -0.000007 -0.000001 -73.264700 11.375800 -5.713750 24.328600 0.000019 0.000005 37.578800 -40.282000 -130.037000 22.291600 -0.000001 0.000005 42.461700 5.007380 7.162010 12.994500 -0.242716 -4.980390 88.385800 4.936000 -71.865400 -5.348130 -0.000001 -0.000004 -71.636300 31.015900 -3.087110 -24.328900 0.000322 -0.000009 2.041440 6.628320 -17.169300 -22.291500 -0.000108 -0.000004 1.544730 5.221030 2.186490 -2.192480 -6.469440 -0.000000 -170.519000 5.572390 -4.603670 39.081100 -0.000007 -0.000012 0.330995 -0.622083 28.017000 40.985400 -0.000006 -0.000013 -0.613713 12.756400 -75.830800 11.754300 -0.000000 0.000003 -0.000196 0.170864 -9.646480 -2.192510 6.469440 -0.000001 -169.373000 9.711500 -176.736000 -39.081100 -0.002282 -0.040193 0.121718 -0.441818 15.000500 -40.985400 0.000008 0.000006 6.040650 -1.271200 -70.796300 -11.754300 -0.000006 -0.000006 -0.010504 0.275032 -5.398510
0.000000 0.000000 0.000000 0.000000 0.000000 -0.000000 -5.046350 91.877000 -0.895181 84.658300 5.014020 4.620350 15.735700 0.000005 -0.000001 80.640900 87.106300 -78.769600 8.984550 -0.406207 -0.000000 -2.035130 -1.100870 3.722650 16.377300 -0.000001 -0.000001 8.334040 -1.131290 -9.374570 6.456720 -0.000001 -0.000000 2.234500 -6.034910 -17.840400 12.994200 -0.242716 4.980390 -92.835500 7.634830 -69.555000 5.348090 -0.000007 -0.000001 -73.284500 11.303700 -5.742940 24.328600 0.000019 0.000005 37.609000 -40.287900 -130.010000 22.291600 -0.000001 0.000005 42.417100 5.006270 7.185110 12.994500 -0.242716 -4.980390 88.377800 4.961680 -71.869100 -5.348130 -0.000001 -0.000004 -71.622400 31.003900 -3.121620 -24.328900 0.000322 -0.000009 2.023640 6.575450 -17.156500 -22.291500 -0.000108 -0.000004 1.527260 5.221530 2.173500 -2.192480 -6.469440 -0.000000 -170.600000 5.543840 -4.719010 39.081100 -0.000007 -0.000012 0.336133 -0.631494 28.026300 40.985400 -0.000006 -0.000013 -0.461594 12.774000 -75.797900 11.754300 -0.000000 0.000003 -0.000131 0.169809 -9.689320 -2.192510 6.469440 -0.000001 -169.418000 9.705230 -176.855000 -39.081100 -0.002282 -0.040193 0.124132 -0.450095 15.023800 -40.985400 0.000008 0.000006 6.105550 -1.337960 -70.796300 -11.754300 -0.000006 -0.000006 -0.010398 0.274258 -5.430200
0.000000 0.000000 0.000000 0.000000 0.000000 -0.000000 -4.961270 91.900400 -0.934663 84.641400 5.073710 4.582100 15.735700 0.000005 -0.000001 80.665400 87.083700 -78.769500 8.984550 -0.406207 -0.000000 -1.989740 -1.107120 3.772090 16.377300 -0.000001 -0.000001 8.281400 -1.123020 -9.351020 6.456720 -0.000001 -0.000000 2.173610 -6.035860 -17.885400 12.994200 -0.242716 4.980390 -92.828800 7.626230 -69.578200 5.348090 -0.000007 -0.000001 -73.357400 11.195200 -5.789010 24.328600 0.000019 0.000005 37.464300 -40.194700 -130.103000 22.291600 -0.000001 0.000005 42.318500 5.005920 7.193100 12.994500 -0.242716 -4.980390 88.380500 4.954770 -71.873700 -5.348130 -0.000001 -0.000004 -71.622100 31.014600 -3.188380 -24.328900 0.000322 -0.000009 2.056290 6.702010 -17.108700 -22.291500 -0.000108 -0.000004 1.552840 5.222020 2.160990 -2.192480 -6.469440 -0.000000 -170.615000 5.557270 -4.781600 39.081100 -0.000007 -0.000012 0.328586 -0.618712 27.972600 40.985400 -0.000006 -0.000013 -0.516654 12.861000 -75.664700 11.754300 -0.000000 0.000003 -0.000036 0.168235 -9.753280 -2.192510 6.469440 -0.000001 -169.474000 9.677930 -176.925000 -39.081100 -0.002282 -0.040193 0.118321 -0.428175 15.032800 -40.985400 0.000008 0.000006 5.798500 -1.357540 -70.750900 -11.754300 -0.000006 -0.000006 -0.010343 0.273851 -5.446820
0.000000 0.000000 0.000000 0.000000 0.000000 -0.000000 -4.880010 91.909100 -0.944607 84.661400 5.128100 4.570690 15.735700 0.000005 -0.000001 80.727700 87.056100 -78.826400 8.984550 -0.406207 -0.000000 -1.933980 -1.109320 3.783280 16.377300 -0.000001 -0.000001 8.251240 -1.139510 -9.296800 6.456720 -0.000001 -0.000000 2.103190 -6.025600 -17.917100 12.994200 -0.242716 4.980390 -92.815500 7.592130 -69.583100 5.348090 -0.000007 -0.000001 -73.412200 11.176200 -5.834990 24.328600 0.000019 0.000005 37.683700 -40.268000 -129.922000 22.291600 -0.000001 0.000005 42.441800 4.993450 7.458110 12.994500 -0.242716 -4.980390 88.371500 4.987110 -71.890200 -5.348130 -0.000001 -0.000004 -71.590000 31.045300 -3.198790 -24.328900 0.000322 -0.000009 2.044870 6.678010 -17.076500 -22.291500 -0.000108 -0.000004 1.471640 5.223910 2.112520 -2.192480 -6.469440 -0.000000 -170.690000 5.538290 -4.815520 39.081100 -0.000007 -0.000012 0.325407 -0.612804 27.969500 40.985400 -0.000006 -0.000013 -0.483095 12.872500 -75.625400 11.754300 -0.000000 0.000003 -0.000224 0.171313 -9.628260 -2.192510 6.469440 -0.000001 -169.569000 9.740500 -176.980000 -39.081100 -0.002282 -0.040193 0.119229 -0.429160 15.112900 -40.985400 0.000008 0.000006 5.684800 -1.305560 -70.795900 -11.754300 -0.000006 -0.000006 -0.010377 0.274099 -5.436680
0.000000 0.000000 0.000000 0.000000 0.000000 -0.000000 -4.813580 91.917900 -0.962997 84.648000 5.219060 4.527560 15.735700 0.000005 -0.000001 80.547200 87.043100 -78.627100 8.984550 -0.406207 -0.000000 -1.910780 -1.133070 3.820650 16.377300 -0.000001 -0.000001 8.214610 -1.157010 -9.242250 6.456720 -0.000001 -0.000000 2.088560 -6.021440 -17.932200 12.994200 -0.242716 4.980390 -92.815000 7.590760 -69.583000 5.348090 -0.000007 -0.000001 -73.462100 11.078000 -5.876950 24.328600 0.000019 0.000005 38.222400 -40.512000 -129.517000 22.291600 -0.000001 0.000005 42.493500 4.980410 7.732970 12.994500 -0.242716 -4.980390 88.370800 4.988940 -71.889100 -5.348130 -0.000001 -0.000004 -71.579400 31.101100 -3.202100 -24.328900 0.000322 -0.000009 2.046450 6.687790 -17.065500 -22.291500 -0.000108 -0.000004 1.587860 5.222100 2.159090 -2.192480 -6.469440 -0.000000 -170.712000 5.565970 -4.889720 39.081100 -0.000007 -0.000012 0.326208 -0.614239 27.972400 40.985400 -0.000006 -0.000013 -0.466591 12.952000 -75.584300 11.754300 -0.000000 0.000003 -0.000112 0.169496 -9.702060 -2.192510 6.469440 -0.000001 -169.599000 9.768010 -177.051000 -39.081100 -0.002282 -0.040193 0.117913 -0.423703 15.132800 -40.985400 0.000008 0.000006 5.554690 -1.322080 -70.794400 -11.754300 -0.000006 -0.000006 -0.010117 0.272177 -5.515340
0.000000 0.000000 0.000000 0.000000 0.000000 -0.000000 -4.743870 91.920100 -0.962926 84.672500 5.268620 4.512450 15.735700 0.000005 -0.000001 80.718300 87.020700 -78.798600 8.984550 -0.406207 -0.000000 -1.863830 -1.122070 3.820600 16.377300 -0.000001 -0.000001 8.221600 -1.186730 -9.208050 6.456720 -0.000001 -0.000000 2.023310 -6.052720 -17.851600 12.994200 -0.242716 4.980390 -92.807900 7.567270 -69.572800 5.348090 -0.000007 -0.000001 -73.517200 11.019100 -5.885620 24.328600 0.000019 0.000005 38.217700 -40.438800 -129.480000 22.291600 -0.000001 0.000005 42.555700 4.983990 7.657860 12.994500 -0.242716 -4.980390 88.362400 4.997200 -71.829600 -5.348130 -0.000001 -0.000004 -71.585500 31.116500 -3.231650 -24.328900 0.000322 -0.000009 2.071810 6.799420 -16.998800 -22.291500 -0.000108 -0.000004 1.462310 5.222380 2.151860 -2.192480 -6.469440 -0.000000 -170.783000 5.569240 -4.924790 39.081100 -0.000007 -0.000012 0.323158 -0.608253 27.981800 40.985400 -0.000006 -0.000013 -0.455283 12.967600 -75.510800 11.754300 -0.000000 0.000003 0.000047 0.166828 -9.810400 -2.192510 6.469440 -0.000001 -169.650000 9.765120 -177.050000 -39.081100 -0.002282 -0.040193 0.120210 -0.433166 15.100500 -40.985400 0.000008 0.000006 5.701520 -1.378550 -70.772000 -11.754300 -0.000006 -0.000006 -0.010172 0.272586 -5.498580
0.000000 0.000000 0.000000 0.000000 0.000000 -0.000000 -4.686550 91.931100 -0.964921 84.642600 5.288970 4.497480 15.735700 0.000005 -0.000001 80.741000 86.996900 -78.803700 8.984550 -0.406207 -0.000000 -1.816280 -1.128040 3.855990 16.377300 -0.000001 -0.000001 8.209320 -1.235720 -9.137710 6.456720 -0.000001 -0.000000 1.941230 -6.031330 -17.816600 12.994200 -0.242716 4.980390 -92.814600 7.576510 -69.550800 5.348090 -0.000007 -0.000001 -73.484600 10.934300 -5.883990 24.328600 0.000019 0.000005 38.256300 -40.473900 -129.461000 22.291600 -0.000001 0.000005 42.653400 4.976220 7.820900 12.994500 -0.242716 -4.980390 88.360800 5.002420 -71.830800 -5.348130 -0.000001 -0.000004 -71.625500 31.010800 -3.221680 -24.328900 0.000322 -0.000009 2.067510 6.793900 -16.978400 -22.291500 -0.000108 -0.000004 1.565960 5.221380 2.177380 -2.192480 -6.469440 -0.000000 -170.798000 5.594800 -4.943180 39.081100 -0.000007 -0.000012 0.322363 -0.606913 27.975700 40.985400 -0.000006 -0.000013 -0.446130 12.905000 -75.524400 11.754300 -0.000000 0.000003 -0.000188 0.170726 -9.652080 -2.192510 6.469440 -0.000001 -169.676000 9.785520 -177.059000 -39.081100 -0.002282 -0.040193 0.117400 -0.423081 15.089300 -40.985400 0.000008 0.000006 5.552920 -1.355990 -70.794100 -11.754300 -0.000006 -0.000006 -0.010471 0.274794 -5.408250
0.000000 0.000000 0.000000 0.000000 0.000000 -0.000000 -4.637180 91.929500 -0.963857 84.637700 5.333210 4.445630 15.735700 0.000005 -0.000001 80.737700 86.992500 -78.795700 8.984550 -0.406207 -0.000000 -1.807390 -1.130070 3.865450 16.377300 -0.000001 -0.000001 8.242210 -1.250970 -9.084420 6.456720 -0.000001 -0.000000 1.882420 -6.098650 -17.698400 12.994200 -0.242716 4.980390 -92.807200 7.568380 -69.580600 5.348090 -0.000007 -0.000001 -73.505700 10.763000 -5.800130 24.328600 0.000019 0.000005 37.661300 -40.208500 -129.910000 22.291600 -0.000001 0.000005 42.360600 4.990000 7.531270 12.994500 -0.242716 -4.980390 88.355400 5.017550 -71.826500 -5.348130 -0.000001 -0.000004 -71.633900 30.985600 -3.193420 -24.328900 0.000322 -0.000009 2.103410 6.910270 -16.983600 -22.291500 -0.000108 -0.000004 1.473580 5.221870 2.164990 -2.192480 -6.469440 -0.000000 -170.830000 5.699450 -5.015110 39.081100 -0.000007 -0.000012 0.325904 -0.612700 28.009800 40.985400 -0.000006 -0.000013 -0.421953 12.908600 -75.552300 11.754300 -0.000000 0.000003 -0.000266 0.171994 -9.600570 -2.192510 6.469440 -0.000001 -169.671000 9.720540 -177.134000 -39.081100 -0.002282 -0.040193 0.119452 -0.429864 15.117000 -40.985400 0.000008 0.000006 5.547100 -1.454200 -70.773100 -11.754300 -0.000006 -0.000006 -0.010315 0.273645 -5.455280
